<?xml version="1.0" encoding="UTF-8"?>
<svg id="Layer_2" data-name="Layer 2" xmlns="http://www.w3.org/2000/svg" xmlns:xlink="http://www.w3.org/1999/xlink" viewBox="0 0 679.58 158">
  <defs>
    <style>
      .cls-1 {
        fill: #fafafa;
      }

      .cls-1, .cls-2, .cls-3, .cls-4, .cls-5 {
        stroke-width: 0px;
      }

      .cls-1, .cls-2, .cls-4, .cls-5 {
        fill-rule: evenodd;
      }

      .cls-2 {
        fill: url(#linear-gradient);
      }

      .cls-3, .cls-5 {
        fill: #0c0c4f;
      }

      .cls-4 {
        fill: url(#linear-gradient-2);
      }
    </style>
    <linearGradient id="linear-gradient" x1="90.65" y1="6252.71" x2="53.57" y2="6360.4" gradientTransform="translate(0 -6220.61)" gradientUnits="userSpaceOnUse">
      <stop offset="0" stop-color="#ec796b"/>
      <stop offset="1" stop-color="#e175b1"/>
    </linearGradient>
    <linearGradient id="linear-gradient-2" x1="129.38" y1="6327.32" x2="108.77" y2="6340.12" xlink:href="#linear-gradient"/>
  </defs>
  <g id="Layer_1-2" data-name="Layer 1">
    <g>
      <path class="cls-3" d="M190.19,101.28h27.56v4.33h-22.84v13.07h21.65v4.27h-21.65v18.49h-4.69v-40.15h-.02Z"/>
      <path class="cls-3" d="M244.11,100.69c2.93-.05,5.69.45,8.24,1.49,2.57,1.04,4.74,2.46,6.55,4.27,1.83,1.83,3.23,4.02,4.24,6.59,1.04,2.57,1.51,5.35,1.49,8.31.05,2.96-.45,5.73-1.49,8.31-1.02,2.57-2.42,4.79-4.24,6.59-1.81,1.81-4,3.23-6.55,4.24-2.55,1.04-5.3,1.53-8.24,1.49-2.93.05-5.69-.45-8.24-1.49-2.55-1.04-4.74-2.44-6.57-4.24-1.81-1.83-3.23-4.02-4.24-6.59s-1.51-5.35-1.49-8.31c-.05-3.95.79-7.52,2.57-10.68,1.76-3.16,4.22-5.64,7.38-7.4,3.16-1.76,6.68-2.62,10.61-2.57h-.02ZM244.11,137.53c4.56,0,8.31-1.51,11.22-4.51,2.91-3.02,4.38-6.91,4.38-11.65s-1.47-8.62-4.38-11.62c-2.91-3.02-6.66-4.54-11.22-4.54s-8.33,1.51-11.24,4.54-4.38,6.91-4.38,11.62,1.47,8.6,4.38,11.62,6.68,4.54,11.24,4.54Z"/>
      <path class="cls-3" d="M272.87,101.28h4.69v25.53c0,3.5.95,6.18,2.84,8.04,1.92,1.85,4.56,2.78,7.92,2.78s6.18-.95,8.04-2.84c1.83-1.92,2.75-4.58,2.75-7.97v-25.53h4.69v25.93c0,4.63-1.4,8.24-4.22,10.83-2.78,2.62-6.55,3.93-11.29,3.93s-8.62-1.33-11.35-3.97c-2.73-2.66-4.11-6.27-4.11-10.79v-25.93h.02Z"/>
      <path class="cls-3" d="M346.34,101.28v40.15h-5.1l-22.53-32.91v32.91h-4.72v-40.15h5.08l22.53,32.75v-32.75h4.74,0Z"/>
      <path class="cls-3" d="M356.88,101.28h13.43c6.41,0,11.44,1.83,15.08,5.46,3.66,3.63,5.46,8.49,5.46,14.6s-1.85,11.26-5.53,14.78c-3.7,3.54-8.71,5.3-15.01,5.3h-13.43v-40.15ZM371.16,137.05c4.47,0,8.04-1.42,10.7-4.27,2.69-2.87,4.04-6.66,4.04-11.38s-1.35-8.6-4.06-11.47c-2.71-2.89-6.27-4.33-10.68-4.33h-9.57v31.44h9.57Z"/>
      <path class="cls-3" d="M422.47,131.46h-19.39l-3.81,9.98h-5.17l15.85-40.15h5.6l16,40.15h-5.26s-3.81-9.98-3.81-9.98ZM421,127.6l-8.26-21.67-8.24,21.67s16.5,0,16.5,0Z"/>
      <path class="cls-3" d="M461.18,105.41h-13.09v36.05h-4.74v-36.05h-13.18v-4.11h31.01v4.11Z"/>
      <path class="cls-3" d="M467.59,141.43v-40.15h4.72v40.15h-4.72Z"/>
      <path class="cls-3" d="M501.45,100.69c2.93-.05,5.69.45,8.26,1.49,2.55,1.04,4.74,2.46,6.55,4.27,1.81,1.83,3.23,4.02,4.24,6.59,1.02,2.57,1.51,5.35,1.49,8.31.02,2.96-.47,5.73-1.49,8.31s-2.44,4.79-4.24,6.59-4,3.23-6.55,4.24c-2.57,1.04-5.33,1.53-8.26,1.49-2.93.05-5.69-.45-8.24-1.49-2.57-1.04-4.76-2.44-6.57-4.24-1.81-1.83-3.23-4.02-4.24-6.59-1.04-2.57-1.53-5.35-1.49-8.31-.07-3.95.79-7.52,2.55-10.68,1.78-3.16,4.24-5.64,7.4-7.4,3.14-1.76,6.68-2.62,10.59-2.57ZM501.45,137.53c4.56,0,8.31-1.51,11.22-4.51,2.93-3.02,4.38-6.91,4.38-11.65s-1.44-8.62-4.38-11.62c-2.91-3.02-6.66-4.54-11.22-4.54s-8.33,1.51-11.24,4.54c-2.93,3.02-4.38,6.91-4.38,11.62s1.44,8.6,4.38,11.62c2.91,3.02,6.66,4.54,11.24,4.54Z"/>
      <path class="cls-3" d="M562.89,101.28v40.15h-5.1l-22.53-32.91v32.91h-4.72v-40.15h5.1l22.53,32.75v-32.75s4.72,0,4.72,0Z"/>
      <path class="cls-5" d="M195.27,73.83c2.62,3.14,5.91,5.55,9.89,7.25h0c4,1.67,8.46,2.51,13.38,2.51,3.61,0,7-.45,10.18-1.4,3.16-.9,5.98-2.26,8.4-4.02,2.44-1.81,4.33-4.06,5.69-6.73,1.4-2.69,2.08-5.78,2.08-9.14s-.61-6.23-1.9-8.53c-1.24-2.28-2.84-4.11-4.79-5.48-1.87-1.38-3.84-2.44-5.87-3.18-1.92-.72-3.66-1.29-5.17-1.72l-12.98-3.75c-1.65-.45-3.34-1.04-5.08-1.76-1.65-.72-3.02-1.67-4.13-2.84-1.04-1.13-1.58-2.6-1.58-4.51s.61-3.61,1.81-5.08c1.24-1.51,2.89-2.71,5.03-3.59,2.14-.86,4.54-1.29,7.22-1.26,2.8.05,5.35.59,7.67,1.65,2.3,1.04,4.22,2.51,5.76,4.42,1.56,1.87,2.55,4.11,3,6.77.05.2.16.38.34.52.18.14.41.18.61.14l8.96-1.56c.2-.05.41-.16.52-.34.14-.18.18-.41.14-.61-.84-4.27-2.51-7.92-4.99-11.01-2.44-3.09-5.55-5.44-9.3-7.06-3.72-1.65-7.92-2.51-12.59-2.53-4.63-.05-8.78.72-12.5,2.28-3.72,1.58-6.7,3.86-8.92,6.86-2.19,3-3.27,6.61-3.27,10.81,0,2.6.43,4.92,1.31,6.91.86,1.92,2.03,3.59,3.5,4.99,1.44,1.35,3.09,2.48,4.92,3.41,1.81.88,3.68,1.6,5.62,2.19l17.38,5.17c1.2.34,2.32.77,3.43,1.29,1.08.5,2.03,1.13,2.84,1.87.84.68,1.47,1.51,1.92,2.53.47.93.72,2.1.72,3.52,0,2.3-.68,4.24-2.01,5.89-1.33,1.67-3.18,3-5.58,3.93-2.35.93-5.01,1.38-7.99,1.38-4.58,0-8.53-1.15-11.9-3.45-3.3-2.32-5.48-5.53-6.55-9.64-.09-.41-.5-.68-.9-.61l-8.71,1.38c-.23.05-.41.16-.54.34s-.18.38-.14.61c.79,4.29,2.46,8.04,5.06,11.22ZM376.33,13.27c-.36,0-.65.29-.65.65v67.38c0,.36.29.65.65.65h9.25v-24.76h13.52c1.53,1.83,3,3.72,4.45,5.71,2.37,3.11,4.56,6.34,6.57,9.71,1.83,3,3.41,5.94,4.76,8.85l.23.47h10.97c.47,0,.79-.47.59-.9-1.26-2.75-2.62-5.46-4.15-8.1-2.05-3.68-4.31-7.34-6.77-10.92-1.4-2.05-2.84-4.06-4.31-6,4.09-1.24,7.31-3.5,9.66-6.79,2.8-3.97,4.2-8.64,4.2-13.97,0-3.66-.63-7.02-1.92-10.04-1.29-3.07-3.25-5.62-5.85-7.63-2.57-2.03-5.76-3.32-9.48-3.88-.88-.16-1.78-.25-2.71-.29-.9-.07-1.69-.09-2.37-.09h-26.66.02v-.02ZM415.22,35.21c0,1.76-.29,3.52-.88,5.24-.59,1.65-1.51,3.09-2.78,4.33-1.22,1.17-2.8,2.03-4.83,2.48-.63.14-1.33.25-2.08.32-.72.07-1.38.09-1.94.09h-17.11v-24.92h17.11c.56,0,1.2,0,1.94.09.72.02,1.4.14,2.01.29,2.01.43,3.61,1.26,4.81,2.48,1.26,1.24,2.19,2.71,2.78,4.38.59,1.69.88,3.41.88,5.19h.09v.02ZM679.58,14.42v9.03h-20.92v58.44h-10.92V23.45h-20.92v-9.03c0-.36.29-.65.65-.65h51.46c.36,0,.65.29.65.65h0ZM572.37,14.42c0-.36.29-.65.65-.65h40.92c.36,0,.65.29.65.65v8.94h-31.28v18.15h27.83v9.39h-27.83v21.4h33.68v8.94c0,.36-.29.65-.65.65h-43.31c-.36,0-.65-.29-.65-.65V14.42ZM547.9,81.48l.23.41h8.4c.36,0,.65-.29.65-.65V14.45c0-.36-.29-.65-.65-.65h-10.09v47.17c-1.76-2.8-3.79-5.87-6.09-9.21-2.96-4.36-6.12-8.78-9.53-13.27-3.34-4.56-6.73-8.94-10.18-13.16-3.41-4.29-6.61-8.06-9.64-11.26l-.25-.25h-7.9c-.36,0-.65.29-.65.65v66.81c0,.36.29.65.65.65h10.09V31.4c1.38,1.63,2.84,3.43,4.4,5.42,2.1,2.69,4.27,5.55,6.5,8.62,2.23,3,4.47,6.12,6.7,9.37,2.3,3.25,4.49,6.48,6.61,9.66,2.1,3.11,4.04,6.16,5.82,9.07,1.85,2.93,3.48,5.6,4.88,7.95h.05,0ZM489.26,14.85l-.25.27h0c-1.67,1.83-3.52,3.84-5.53,6h-.02l-.02.05h0l-1.15,1.24c-2.51,2.64-5.12,5.35-7.88,8.17-2.69,2.75-5.37,5.48-8.06,8.17-2.42,2.44-4.72,4.69-6.88,6.82,2.55,1.83,5.21,4.02,8.01,6.59,3.09,2.84,6.12,5.87,9.07,9.07,2.96,3.23,5.73,6.5,8.31,9.84,2.64,3.34,4.85,6.55,6.59,9.59l.14.25c.25.43-.07.97-.56.97h-11.67l-.25-.38c-1.92-2.98-4.09-5.96-6.57-8.94-2.48-3.05-5.1-5.94-7.9-8.67-2.73-2.8-5.53-5.37-8.37-7.72-2.37-1.99-4.67-3.72-6.93-5.19v30.9h-10.27c-.36,0-.65-.29-.65-.65V14.47c0-.36.29-.65.65-.65h10.27v28.28c.45-.43.93-.88,1.4-1.33h0c1.44-1.4,2.98-2.87,4.6-4.47,2.69-2.69,5.33-5.37,7.95-8.06,2.62-2.69,5.08-5.24,7.38-7.67,2.35-2.48,4.33-4.65,5.91-6.5l.25-.27h11.96c.56,0,.86.68.47,1.08v-.02ZM354.44,81.35c-1.08-2.89-2.1-5.71-3.07-8.46h-.02c-.93-2.64-1.85-5.33-2.82-8.06l-.16-.45-2.3-6.55c-1.17.59-2.39,1.24-3.61,1.94-3.41,1.9-6.77,4.02-10.13,6.39-3.41,2.3-6.68,4.79-9.82,7.47-3.11,2.6-5.96,5.28-8.49,7.99l-.25.25h-10.7c-.45,0-.77-.45-.61-.88,2.39-6.59,4.81-13.16,7.27-19.7,2.23-6,4.4-11.71,6.52-17.09,2.17-5.37,4.31-10.5,6.43-15.37,2.12-4.97,4.36-9.86,6.68-14.72.11-.23.34-.36.59-.36h8.74c.25,0,.47.14.59.36,2.32,4.88,4.56,9.77,6.68,14.72,2.12,4.88,4.22,10,6.34,15.37,2.19,5.37,4.4,11.06,6.64,17.09,2.48,6.55,4.9,13.14,7.29,19.7.16.43-.16.88-.61.88h-10.97l-.2-.52h0ZM342.36,47.69c-.93-2.42-1.85-4.79-2.78-7.13v-.05c-1.74-4.63-3.57-9.1-5.46-13.38-1.96,4.29-3.86,8.76-5.67,13.41-1.96,5.15-3.95,10.5-5.91,16.03l-1.49,4.27c3.5-2.64,7.06-5.08,10.63-7.31,3.72-2.35,7.22-4.24,10.47-5.73.05,0,.07-.02.11-.05.02,0,.07-.02.09-.05h0ZM305.14,23.43v-9.03c0-.36-.29-.65-.65-.65h-51.46c-.36,0-.65.29-.65.65v9.03h20.92v57.78c0,.36.29.65.65.65h9.64c.36,0,.65-.29.65-.65V23.45h20.9v-.02Z"/>
      <g>
        <path class="cls-5" d="M0,79c0,43.63,35.37,79,79,79s79-35.37,79-79S122.63,0,79,0,0,35.37,0,79Z"/>
        <path class="cls-1" d="M44.15,60.38l1.94-6.03c.38-1.22,1.35-2.19,2.6-2.55l6.05-1.85c.84-.25.84-1.44,0-1.72l-6.03-1.94c-1.22-.41-2.17-1.35-2.55-2.6l-1.85-6.05c-.25-.84-1.44-.84-1.72,0l-1.94,6.03c-.41,1.22-1.35,2.17-2.6,2.55l-6.05,1.85c-.84.25-.86,1.44,0,1.72l6.03,1.94c1.22.41,2.19,1.35,2.55,2.6l1.85,6.05c.25.84,1.44.86,1.72,0Z"/>
        <path class="cls-2" d="M139.85,56.88c-2.51-2.8-6.39-4.36-10.18-5.01-3.81-.61-7.81-.56-11.58.11-7.63,1.29-14.56,4.45-20.59,8.35-3.14,1.92-5.82,4.13-8.58,6.37-1.33,1.15-2.55,2.35-3.81,3.54l-3.48,3.45c-3.77,3.93-7.47,7.52-11.06,10.5-3.61,2.96-6.97,5.21-10.29,6.77-3.32,1.58-6.86,2.51-11.51,2.66-4.58.16-10.02-.68-15.82-2.03-5.85-1.35-11.96-3.3-18.82-4.97,2.39,6.64,5.98,12.5,10.61,17.85,4.67,5.26,10.52,10.07,18.01,13.23,7.4,3.23,16.68,4.38,25.37,2.64,8.71-1.67,16.36-5.71,22.53-10.36,6.21-4.72,11.22-10.07,15.44-15.64,1.17-1.53,1.78-2.42,2.62-3.61l2.32-3.45c1.63-2.14,3.09-4.58,4.69-6.68,3.14-4.42,6.25-8.87,9.86-12.96,1.81-2.08,3.72-4.04,5.98-5.96,1.13-.93,2.35-1.83,3.68-2.66,1.38-.88,2.82-1.58,4.6-2.1v-.05Z"/>
        <path class="cls-1" d="M139.85,56.88c-2.69-6.77-7.67-12.46-14.36-16.66-6.66-4.15-15.89-6.27-25.03-4.47-4.51.88-8.89,2.55-12.75,4.81-3.84,2.23-7.27,4.92-10.22,7.81-1.49,1.44-2.82,2.96-4.15,4.47l-3.45,4.42-5.35,7.11c-6.82,9.14-14.17,19.86-26.23,23.05-11.83,3.11-16.97.36-24.17-.79,1.31,3.41,2.96,6.73,5.17,9.64,2.17,2.98,4.74,5.76,7.95,8.15,1.63,1.15,3.32,2.28,5.21,3.25,1.87.93,3.93,1.74,6.09,2.37,4.31,1.2,9.16,1.6,13.88.97,4.69-.63,9.21-2.12,13.14-4.11,3.97-1.96,7.4-4.36,10.5-6.86,6.12-5.08,10.88-10.7,14.92-16.39,2.03-2.84,3.86-5.73,5.55-8.62l2.01-3.45c.61-1.02,1.22-2.03,1.85-2.96,2.53-3.79,5.01-6.84,8.04-9.12,2.98-2.35,7.11-4.06,12.64-4.47,5.51-.41,11.85.34,18.82,1.92l-.05-.07Z"/>
        <path class="cls-4" d="M110.08,113.11c0,4.97,4.04,9.01,9.01,9.01s9.01-4.04,9.01-9.01-4.02-9.01-9.01-9.01-9.01,4.04-9.01,9.01Z"/>
      </g>
    </g>
  </g>
</svg>